<?xml version="1.0" encoding="UTF-8"?>
<svg version="1.1" xmlns="http://www.w3.org/2000/svg" width="86" height="86">
<path d="M0 0 C1.34094727 0.04737305 1.34094727 0.04737305 2.70898438 0.09570312 C7.65553214 0.34908976 10.9777409 0.78090163 15.0625 3.8125 C19.69617336 6.68790318 24.73217522 6.24997375 30.04296875 6.46875 C31.53763672 6.63890625 31.53763672 6.63890625 33.0625 6.8125 C34.30796405 9.30342811 33.8392578 10.22330733 33.0625 12.8125 C34.3825 13.4725 35.7025 14.1325 37.0625 14.8125 C37.0625 15.4725 37.0625 16.1325 37.0625 16.8125 C37.7225 17.1425 38.3825 17.4725 39.0625 17.8125 C39.16161689 23.68403231 39.23408611 29.55507413 39.28222656 35.42724609 C39.30230169 37.42342618 39.32956789 39.41954775 39.36425781 41.41552734 C39.41295657 44.2901862 39.43550986 47.1640654 39.453125 50.0390625 C39.47377014 50.92679352 39.49441528 51.81452454 39.51568604 52.72915649 C39.51613922 53.98978409 39.51613922 53.98978409 39.51660156 55.27587891 C39.52548401 56.00868073 39.53436646 56.74148254 39.54351807 57.49649048 C38.80676512 61.04381429 37.44175233 63.09529806 35.0625 65.8125 C31.81925964 66.54748535 31.81925964 66.54748535 27.92651367 66.52539062 C27.21540939 66.52947937 26.50430511 66.53356812 25.77165222 66.53778076 C23.42353985 66.54379118 21.07824672 66.5068617 18.73046875 66.46875 C17.09386388 66.46263081 15.45724857 66.45888162 13.82063293 66.45739746 C10.38970066 66.44819366 6.9597079 66.41936493 3.52905273 66.375 C-0.85564352 66.31856864 -5.23959842 66.29658984 -9.6246233 66.2876358 C-13.81885357 66.27728775 -18.01289999 66.24821193 -22.20703125 66.21875 C-23.00171122 66.21498856 -23.79639118 66.21122711 -24.61515236 66.20735168 C-26.88146034 66.193501 -29.14720544 66.16617741 -31.41333008 66.13476562 C-32.70032303 66.12110962 -33.98731598 66.10745361 -35.31330872 66.09338379 C-39.17204676 65.79432205 -42.27069275 64.9983947 -45.9375 63.8125 C-46.75731115 60.22552092 -47.06596964 56.91091238 -47.0703125 53.234375 C-47.07256836 52.1633252 -47.07482422 51.09227539 -47.07714844 49.98876953 C-47.07231445 48.85810059 -47.06748047 47.72743164 -47.0625 46.5625 C-47.05766602 45.40476074 -47.05283203 44.24702148 -47.04785156 43.05419922 C-47.02413854 39.63999793 -46.98558366 36.22643952 -46.9375 32.8125 C-46.92493164 31.88405273 -46.91236328 30.95560547 -46.89941406 29.99902344 C-46.85500186 27.64336411 -46.78008078 25.29169709 -46.6875 22.9375 C-46.61789063 20.99230469 -46.61789063 20.99230469 -46.546875 19.0078125 C-45.83575683 15.27900053 -44.7488565 14.24540466 -41.9375 11.8125 C-40.66965876 8.67899283 -40.66965876 8.67899283 -39.9375 5.8125 C-37.6275 5.8125 -35.3175 5.8125 -32.9375 5.8125 C-31.9375 8.8125 -31.9375 8.8125 -31.9375 11.8125 C-31.2775 11.8125 -30.6175 11.8125 -29.9375 11.8125 C-29.81375 11.19375 -29.69 10.575 -29.5625 9.9375 C-28.9375 7.8125 -28.9375 7.8125 -26.9375 5.8125 C-25.0625 5.765625 -25.0625 5.765625 -22.9375 6.0625 C-21.885625 6.19398437 -21.885625 6.19398437 -20.8125 6.328125 C-18.9375 6.8125 -18.9375 6.8125 -16.9375 8.8125 C-15.73121992 6.48035852 -14.7720262 4.31607861 -13.9375 1.8125 C-9.5538842 -1.1064951 -5.03752582 -0.28568883 0 0 Z " fill="#374F56" transform="translate(46.9375,10.1875)"/>
<path d="M0 0 C1.18613892 0.00785522 1.18613892 0.00785522 2.39624023 0.01586914 C3.67724609 0.02070313 3.67724609 0.02070313 4.98413086 0.02563477 C5.88196289 0.03401367 6.77979492 0.04239258 7.70483398 0.05102539 C8.6065332 0.05553711 9.50823242 0.06004883 10.43725586 0.06469727 C12.67234712 0.07652315 14.90730835 0.09300319 17.14233398 0.11352539 C17.14233398 0.77352539 17.14233398 1.43352539 17.14233398 2.11352539 C17.76108398 2.17540039 18.37983398 2.23727539 19.01733398 2.30102539 C21.14233398 3.11352539 21.14233398 3.11352539 22.32983398 5.55102539 C22.59795898 6.39665039 22.86608398 7.24227539 23.14233398 8.11352539 C23.93209465 10.27262851 23.93209465 10.27262851 25.93139648 10.74243164 C28.20211433 11.12355919 30.219738 11.1437354 32.51733398 11.05102539 C36.43239764 11.01226238 39.54794316 11.40618975 43.14233398 13.11352539 C44.42551291 16.96306216 44.20877036 20.06090674 44.14233398 24.11352539 C43.48233398 23.78352539 42.82233398 23.45352539 42.14233398 23.11352539 C42.14233398 22.78352539 42.14233398 22.45352539 42.14233398 22.11352539 C36.42193387 21.28146719 30.91993282 20.99315875 25.14233398 21.11352539 C25.14233398 20.45352539 25.14233398 19.79352539 25.14233398 19.11352539 C24.48233398 19.11352539 23.82233398 19.11352539 23.14233398 19.11352539 C23.14233398 18.45352539 23.14233398 17.79352539 23.14233398 17.11352539 C21.55935372 16.63319359 19.97593421 16.15430927 18.39233398 15.67602539 C17.51061523 15.40918945 16.62889648 15.14235352 15.72045898 14.86743164 C14.86967773 14.61864258 14.01889648 14.36985352 13.14233398 14.11352539 C12.46428711 13.90211914 11.78624023 13.69071289 11.08764648 13.47290039 C6.01317876 12.53544852 1.01301404 14.6069479 -3.29516602 17.11352539 C-5.84619465 19.02047986 -5.84619465 19.02047986 -7.85766602 21.11352539 C-10.6550293 21.34057617 -10.6550293 21.34057617 -14.17797852 21.30883789 C-16.06323242 21.29916992 -16.06323242 21.29916992 -17.98657227 21.28930664 C-19.3052832 21.27254883 -20.62399414 21.25579102 -21.98266602 21.23852539 C-23.32250322 21.22849522 -24.66234753 21.21936943 -26.00219727 21.21118164 C-29.28753174 21.18754614 -32.57251067 21.15459773 -35.85766602 21.11352539 C-36.22561528 14.61308837 -36.22561528 14.61308837 -34.5949707 12.39916992 C-31.54019232 10.13856523 -27.7533812 10.85371599 -24.10766602 10.98852539 C-15.91796635 11.30745458 -15.91796635 11.30745458 -7.85766602 10.11352539 C-6.00675897 8.14401551 -6.00675897 8.14401551 -4.98266602 5.61352539 C-4.59336914 4.79883789 -4.20407227 3.98415039 -3.80297852 3.14477539 C-3.49102539 2.47446289 -3.17907227 1.80415039 -2.85766602 1.11352539 C-1.85766602 0.11352539 -1.85766602 0.11352539 0 0 Z " fill="#D4DEE4" transform="translate(38.857666015625,12.886474609375)"/>
<path d="M0 0 C1.34094727 0.04737305 1.34094727 0.04737305 2.70898438 0.09570312 C7.65553214 0.34908976 10.9777409 0.78090163 15.0625 3.8125 C19.69617336 6.68790318 24.73217522 6.24997375 30.04296875 6.46875 C31.53763672 6.63890625 31.53763672 6.63890625 33.0625 6.8125 C34.30796405 9.30342811 33.8392578 10.22330733 33.0625 12.8125 C34.3825 13.4725 35.7025 14.1325 37.0625 14.8125 C37.0625 15.4725 37.0625 16.1325 37.0625 16.8125 C37.7225 17.1425 38.3825 17.4725 39.0625 17.8125 C39.16161689 23.68403231 39.23408611 29.55507413 39.28222656 35.42724609 C39.30230169 37.42342618 39.32956789 39.41954775 39.36425781 41.41552734 C39.41295657 44.2901862 39.43550986 47.1640654 39.453125 50.0390625 C39.47377014 50.92679352 39.49441528 51.81452454 39.51568604 52.72915649 C39.51613922 53.98978409 39.51613922 53.98978409 39.51660156 55.27587891 C39.52548401 56.00868073 39.53436646 56.74148254 39.54351807 57.49649048 C38.80676512 61.04381429 37.44175233 63.09529806 35.0625 65.8125 C31.81925964 66.54748535 31.81925964 66.54748535 27.92651367 66.52539062 C27.21540939 66.52947937 26.50430511 66.53356812 25.77165222 66.53778076 C23.42353985 66.54379118 21.07824672 66.5068617 18.73046875 66.46875 C17.09386388 66.46263081 15.45724857 66.45888162 13.82063293 66.45739746 C10.38970066 66.44819366 6.9597079 66.41936493 3.52905273 66.375 C-0.85564352 66.31856864 -5.23959842 66.29658984 -9.6246233 66.2876358 C-13.81885357 66.27728775 -18.01289999 66.24821193 -22.20703125 66.21875 C-23.00171122 66.21498856 -23.79639118 66.21122711 -24.61515236 66.20735168 C-26.88146034 66.193501 -29.14720544 66.16617741 -31.41333008 66.13476562 C-32.70032303 66.12110962 -33.98731598 66.10745361 -35.31330872 66.09338379 C-39.17204676 65.79432205 -42.27069275 64.9983947 -45.9375 63.8125 C-46.75731115 60.22552092 -47.06596964 56.91091238 -47.0703125 53.234375 C-47.07256836 52.1633252 -47.07482422 51.09227539 -47.07714844 49.98876953 C-47.07231445 48.85810059 -47.06748047 47.72743164 -47.0625 46.5625 C-47.05766602 45.40476074 -47.05283203 44.24702148 -47.04785156 43.05419922 C-47.02413854 39.63999793 -46.98558366 36.22643952 -46.9375 32.8125 C-46.92493164 31.88405273 -46.91236328 30.95560547 -46.89941406 29.99902344 C-46.85500186 27.64336411 -46.78008078 25.29169709 -46.6875 22.9375 C-46.61789063 20.99230469 -46.61789063 20.99230469 -46.546875 19.0078125 C-45.83575683 15.27900053 -44.7488565 14.24540466 -41.9375 11.8125 C-40.66965876 8.67899283 -40.66965876 8.67899283 -39.9375 5.8125 C-37.6275 5.8125 -35.3175 5.8125 -32.9375 5.8125 C-31.9375 8.8125 -31.9375 8.8125 -31.9375 11.8125 C-31.2775 11.8125 -30.6175 11.8125 -29.9375 11.8125 C-29.81375 11.19375 -29.69 10.575 -29.5625 9.9375 C-28.9375 7.8125 -28.9375 7.8125 -26.9375 5.8125 C-25.0625 5.765625 -25.0625 5.765625 -22.9375 6.0625 C-21.885625 6.19398437 -21.885625 6.19398437 -20.8125 6.328125 C-18.9375 6.8125 -18.9375 6.8125 -16.9375 8.8125 C-15.73121992 6.48035852 -14.7720262 4.31607861 -13.9375 1.8125 C-9.5538842 -1.1064951 -5.03752582 -0.28568883 0 0 Z M-12.46875 5.69140625 C-13.9326645 8.63225451 -13.9326645 8.63225451 -14.6875 11.125 C-15.9375 12.8125 -15.9375 12.8125 -19.46484375 13.42578125 C-24.65762256 13.97829106 -29.81214987 13.80370044 -35.02148438 13.59765625 C-39.07857052 13.41335445 -39.07857052 13.41335445 -42.64639282 15.05786133 C-44.25755043 17.24745448 -44.31726442 18.4427215 -44.32568359 21.14453125 C-44.33514008 22.01553467 -44.34459656 22.88653809 -44.3543396 23.78393555 C-44.34826691 24.72148682 -44.34219421 25.65903809 -44.3359375 26.625 C-44.33880768 27.59026611 -44.34167786 28.55553223 -44.34463501 29.55004883 C-44.34667661 31.59098904 -44.34114007 33.63194877 -44.32861328 35.67285156 C-44.3125612 38.8005744 -44.32845895 41.92700496 -44.34765625 45.0546875 C-44.34567384 47.03646119 -44.3418302 49.01823408 -44.3359375 51 C-44.34201019 51.93755127 -44.34808289 52.87510254 -44.3543396 53.84106445 C-44.34488312 54.71206787 -44.33542664 55.58307129 -44.32568359 56.48046875 C-44.32329681 57.24641357 -44.32091003 58.0123584 -44.31845093 58.80151367 C-44.05335826 60.8588503 -44.05335826 60.8588503 -42.85610962 62.55899048 C-39.90286371 64.48847203 -37.35040345 64.19425429 -33.8515625 64.20068359 C-33.13417908 64.20594055 -32.41679565 64.21119751 -31.67767334 64.21661377 C-29.30572758 64.22982045 -26.93445262 64.22107376 -24.5625 64.2109375 C-22.91487499 64.21295805 -21.26725085 64.21586934 -19.61962891 64.21963501 C-16.16625454 64.22405925 -12.71311294 64.21762421 -9.25976562 64.20361328 C-4.8308764 64.18652118 -0.40253254 64.19636185 4.02633667 64.21433067 C7.42867144 64.2251659 10.83087669 64.22172341 14.23321533 64.2139473 C15.86631332 64.21194456 17.49942302 64.21440716 19.13250732 64.22138596 C21.41417638 64.22899634 23.69495952 64.21740309 25.9765625 64.20068359 C27.2754541 64.19829681 28.5743457 64.19591003 29.91259766 64.19345093 C32.99887885 64.05560226 32.99887885 64.05560226 34.98210144 62.5599823 C36.3335075 60.37416101 36.43691375 59.02928779 36.43481445 56.46459961 C36.44104324 55.5903685 36.44727203 54.71613739 36.45368958 53.81541443 C36.44447983 52.8747261 36.43527008 51.93403778 36.42578125 50.96484375 C36.42627975 49.99720596 36.42677826 49.02956818 36.42729187 48.03260803 C36.42495144 45.98745672 36.41522478 43.94230253 36.39868164 41.8972168 C36.3750654 38.75869134 36.37812388 35.62101372 36.38476562 32.48242188 C36.37918978 30.49739075 36.37208049 28.51236321 36.36328125 26.52734375 C36.36419266 25.5846312 36.36510406 24.64191864 36.36604309 23.67063904 C36.35651108 22.79956009 36.34697906 21.92848114 36.3371582 21.03100586 C36.33255081 20.26284042 36.32794342 19.49467499 36.32319641 18.70323181 C36.22304434 16.57044657 36.22304434 16.57044657 34.0625 14.8125 C29.8932505 13.50960953 25.68543767 13.76999696 21.3671875 13.875 C19.0625 13.8125 19.0625 13.8125 16.0625 12.8125 C14.89453125 10.96484375 14.89453125 10.96484375 13.875 8.75 C13.53082031 8.01652344 13.18664063 7.28304688 12.83203125 6.52734375 C12.57808594 5.96144531 12.32414062 5.39554688 12.0625 4.8125 C11.0725 4.8125 10.0825 4.8125 9.0625 4.8125 C8.5675 3.8225 8.5675 3.8225 8.0625 2.8125 C5.14360852 2.65033936 2.23370775 2.53158798 -0.6875 2.4375 C-1.5125 2.38722656 -2.3375 2.33695313 -3.1875 2.28515625 C-8.54512569 2.11652684 -8.54512569 2.11652684 -12.46875 5.69140625 Z " fill="#161616" transform="translate(46.9375,10.1875)"/>
<path d="M0 0 C4.10826126 3.66412491 4.7795873 7.27667097 5.09375 12.5703125 C4.90071925 17.57302598 2.68505273 20.21218936 -0.5 23.875 C-4.14779619 26.67679857 -7.83467223 26.70786729 -12.30859375 26.4765625 C-16.5108016 25.73248506 -19.23349746 24.25378424 -22 21 C-24.30492252 17.17446887 -24.98443407 13.88725793 -25.0625 9.4375 C-23.67052611 4.93405506 -21.55752151 2.06825864 -18 -1 C-11.52176209 -4.10415567 -6.0639536 -3.82292727 0 0 Z " fill="#3F8DBB" transform="translate(57,36)"/>
<path d="M0 0 C4.14422261 -0.09953791 8.28779575 -0.17177901 12.43286133 -0.21972656 C13.84021134 -0.23973246 15.24747938 -0.26694662 16.65454102 -0.30175781 C30.61450943 -0.63826184 30.61450943 -0.63826184 37 4 C40.66925632 4.58478294 40.66925632 4.58478294 44 4 C45.0194119 3.01979625 46.02246356 2.02196992 47 1 C49.5 1.3125 49.5 1.3125 52 2 C55.18490007 2.2773501 55.18490007 2.2773501 58 0 C60.36010742 -0.22705078 60.36010742 -0.22705078 63.10546875 -0.1953125 C64.08837891 -0.18886719 65.07128906 -0.18242188 66.08398438 -0.17578125 C67.10814453 -0.15902344 68.13230469 -0.14226563 69.1875 -0.125 C70.22326172 -0.11597656 71.25902344 -0.10695312 72.32617188 -0.09765625 C74.88434685 -0.0740786 77.44205748 -0.0411703 80 0 C80.36325481 6.4175016 80.36325481 6.4175016 78.93412781 8.70918274 C75.96049983 10.69375186 73.41019765 10.35862579 69.86645508 10.34057617 C68.78315163 10.34123329 68.78315163 10.34123329 67.67796326 10.34190369 C65.29154395 10.33981414 62.90582777 10.31647613 60.51953125 10.29296875 C58.86472457 10.28737336 57.20991292 10.283103 55.55509949 10.28010559 C51.20006586 10.26865224 46.84533249 10.23918098 42.49041748 10.20599365 C38.04638735 10.17530326 33.60230869 10.16160247 29.15820312 10.14648438 C20.43866431 10.11431162 11.71936951 10.06310952 3 10 C3 9.34 3 8.68 3 8 C2.01 7.67 1.02 7.34 0 7 C0 4.69 0 2.38 0 0 Z " fill="#D8E2E8" transform="translate(3,64)"/>
<path d="M0 0 C1.6097168 0.07250977 1.6097168 0.07250977 3.25195312 0.14648438 C4.37150391 0.20255859 5.49105469 0.25863281 6.64453125 0.31640625 C8.34125977 0.3947168 8.34125977 0.3947168 10.07226562 0.47460938 C12.86746405 0.60434432 15.66231065 0.73931266 18.45703125 0.87890625 C18.17190674 1.39042236 17.88678223 1.90193848 17.59301758 2.42895508 C15.36876319 6.60168161 13.93985297 9.73176404 14.14453125 14.56640625 C14.16902344 15.45714844 14.19351562 16.34789063 14.21875 17.265625 C14.40700253 19.91090005 14.40700253 19.91090005 15.0390625 22.5859375 C15.45703125 24.87890625 15.45703125 24.87890625 14.45703125 26.87890625 C15.11703125 27.20890625 15.77703125 27.53890625 16.45703125 27.87890625 C14.80703125 28.53890625 13.15703125 29.19890625 11.45703125 29.87890625 C11.12703125 29.21890625 10.79703125 28.55890625 10.45703125 27.87890625 C9.46703125 28.53890625 8.47703125 29.19890625 7.45703125 29.87890625 C5.12503737 29.95795689 2.78870503 29.96689394 0.45703125 29.87890625 C0.12703125 30.53890625 -0.20296875 31.19890625 -0.54296875 31.87890625 C-3.9175959 31.33166942 -5.62531875 30.82400625 -8.54296875 28.87890625 C-8.88354492 26.08154297 -8.88354492 26.08154297 -8.8359375 22.55859375 C-8.82626953 21.30175781 -8.81660156 20.04492188 -8.80664062 18.75 C-8.78150391 17.43128906 -8.75636719 16.11257812 -8.73046875 14.75390625 C-8.71542358 13.41407722 -8.70173488 12.07423221 -8.68945312 10.734375 C-8.65399747 7.44881783 -8.60457724 4.16406043 -8.54296875 0.87890625 C-5.3500005 -0.1854165 -3.33851934 -0.15897711 0 0 Z " fill="#506B75" transform="translate(11.54296875,33.12109375)"/>
<path d="M0 0 C2.32891212 3.49336818 2.23551143 4.86007865 2.1953125 8.98046875 C2.18886719 10.14384766 2.18242188 11.30722656 2.17578125 12.50585938 C2.15902344 13.72080078 2.14226562 14.93574219 2.125 16.1875 C2.11597656 17.41404297 2.10695313 18.64058594 2.09765625 19.90429688 C2.07406104 22.93628085 2.03818967 25.96816473 2 29 C-3.94 29 -9.88 29 -16 29 C-15 24 -15 24 -13.95703125 22.1875 C-12.50761257 18.87454301 -12.67141189 15.55225486 -12.6875 12 C-12.67138672 11.2884375 -12.65527344 10.576875 -12.63867188 9.84375 C-12.63471943 5.60672699 -12.97616669 3.06372557 -16 0 C-10.34264292 -0.9092181 -5.63736762 -1.16635192 0 0 Z " fill="#506C77" transform="translate(81,34)"/>
<path d="M0 0 C0.99 0.33 1.98 0.66 3 1 C2.34 1.66 1.68 2.32 1 3 C1.33 3.66 1.66 4.32 2 5 C2.66 4.67 3.32 4.34 4 4 C9.22179434 3.95795657 13.68047106 4.19793339 18.1875 6.9375 C20 9 20 9 20 11 C20.99 11.33 21.98 11.66 23 12 C25.22274883 15.97755054 25.39384825 19.51012999 25 24 C22.77525231 29.85459919 19.16392733 33.55738178 14 37 C7.24654815 38.03161076 1.59190734 36.9250888 -4 33 C-7.64261443 29.23988188 -8.04468459 25.80957584 -8.0625 20.75 C-8.041875 19.5125 -8.02125 18.275 -8 17 C-9.32 17.33 -10.64 17.66 -12 18 C-11.74322411 19.75211782 -11.46897047 21.50167936 -11.1875 23.25 C-11.03667969 24.22453125 -10.88585937 25.1990625 -10.73046875 26.203125 C-9.96331725 29.14045372 -8.88241663 30.66889777 -7 33 C-7 33.66 -7 34.32 -7 35 C-2.84541088 37.23708645 1.23876933 39 6 39 C6.33 39.33 6.66 39.66 7 40 C9.32817964 40.36760731 11.6618385 40.70241581 14 41 C14 41.33 14 41.66 14 42 C11.98040636 42.10933138 9.95904385 42.18618576 7.9375 42.25 C6.81214844 42.29640625 5.68679687 42.3428125 4.52734375 42.390625 C0.86142424 41.98465385 -0.93624455 40.85828667 -3.99829102 38.93066406 C-8.05023725 37.04677346 -12.54113463 37.31611076 -16.9375 37.25 C-17.90751953 37.22035156 -18.87753906 37.19070312 -19.87695312 37.16015625 C-22.25138298 37.08997606 -24.62486086 37.03702676 -27 37 C-27 36.67 -27 36.34 -27 36 C-26.06027344 35.80083984 -26.06027344 35.80083984 -25.1015625 35.59765625 C-24.28429687 35.42105469 -23.46703125 35.24445312 -22.625 35.0625 C-21.81289063 34.88847656 -21.00078125 34.71445312 -20.1640625 34.53515625 C-17.970537 34.07669307 -17.970537 34.07669307 -16 33 C-16 33.99 -16 34.98 -16 36 C-15.01 35.34 -14.02 34.68 -13 34 C-13.66 33.34 -14.32 32.68 -15 32 C-14.34 31.67 -13.68 31.34 -13 31 C-13.23396484 29.92492188 -13.23396484 29.92492188 -13.47265625 28.828125 C-14.73682517 22.04843389 -15.2110866 16.11450336 -11.375 10.125 C-8.21679414 5.94898371 -4.73471162 2.36735581 0 0 Z M-3.875 11.75 C-6.61790877 15.94503694 -7.54012344 19.05182622 -6.625 24.046875 C-5.25832579 28.59106674 -3.21193683 31.6269121 0.84375 34.14453125 C5.22201424 35.88156 9.41935184 35.95514249 14 35 C17.78554064 32.96215103 20.13895881 30.29156179 22.5 26.75 C23.39842868 21.80864224 23.38359324 16.61226677 20.98828125 12.08984375 C18.46728305 8.85310473 15.96418976 6.96687555 12 6 C5.50051697 5.29353445 0.8153999 7.26353053 -3.875 11.75 Z " fill="#2C383B" transform="translate(39,27)"/>
<path d="M0 0 C0.94875 0.391875 1.8975 0.78375 2.875 1.1875 C4.195 1.1875 5.515 1.1875 6.875 1.1875 C7.1225 1.826875 7.37 2.46625 7.625 3.125 C8.66089115 5.32707784 8.66089115 5.32707784 10.6796875 5.8203125 C12.9436134 6.19897626 14.95932565 6.21743072 17.25 6.125 C21.16506366 6.08623699 24.28060917 6.48016436 27.875 8.1875 C29.15817892 12.03703676 28.94143637 15.13488135 28.875 19.1875 C28.215 18.8575 27.555 18.5275 26.875 18.1875 C26.875 17.8575 26.875 17.5275 26.875 17.1875 C21.15459989 16.3554418 15.65259884 16.06713336 9.875 16.1875 C9.875 15.5275 9.875 14.8675 9.875 14.1875 C9.215 14.1875 8.555 14.1875 7.875 14.1875 C7.875 13.5275 7.875 12.8675 7.875 12.1875 C7.18792969 11.98253906 6.50085938 11.77757812 5.79296875 11.56640625 C4.89191406 11.29699219 3.99085937 11.02757812 3.0625 10.75 C1.72251953 10.34974609 1.72251953 10.34974609 0.35546875 9.94140625 C-1.47973055 9.38362127 -3.30533726 8.79405425 -5.125 8.1875 C-5.455 7.5275 -5.785 6.8675 -6.125 6.1875 C-7.78821482 5.83734951 -9.45534549 5.50552943 -11.125 5.1875 C-12.115 4.5275 -13.105 3.8675 -14.125 3.1875 C-13.42375 3.084375 -12.7225 2.98125 -12 2.875 C-9.00306696 2.30159916 -9.00306696 2.30159916 -6.1875 0.5 C-3.125 -0.8125 -3.125 -0.8125 0 0 Z " fill="#C3CACE" transform="translate(54.125,17.8125)"/>
<path d="M0 0 C2.0625 0.1875 2.0625 0.1875 4 1 C4.495 2.485 4.495 2.485 5 4 C5.99 4.495 5.99 4.495 7 5 C7.09911689 10.87153231 7.17158611 16.74257413 7.21972656 22.61474609 C7.23980169 24.61092618 7.26706789 26.60704775 7.30175781 28.60302734 C7.35045657 31.4776862 7.37300986 34.3515654 7.390625 37.2265625 C7.41127014 38.11429352 7.43191528 39.00202454 7.45318604 39.91665649 C7.45363922 41.17728409 7.45363922 41.17728409 7.45410156 42.46337891 C7.46298401 43.19618073 7.47186646 43.92898254 7.48101807 44.68399048 C6.74355559 48.23473055 5.38474177 50.28210395 3 53 C-0.27688599 53.73498535 -0.27688599 53.73498535 -4.21533203 53.71289062 C-4.93446777 53.71697937 -5.65360352 53.72106812 -6.39453125 53.72528076 C-8.76666703 53.73128753 -11.13600848 53.69438973 -13.5078125 53.65625 C-15.15639558 53.6501335 -16.804989 53.64638226 -18.45358276 53.64489746 C-21.90549384 53.63569787 -25.35646996 53.60687233 -28.80810547 53.5625 C-33.23813269 53.50584587 -37.66742514 53.48406796 -42.09778023 53.4751358 C-45.50010562 53.46683391 -48.90228176 53.44720608 -52.3045311 53.42338562 C-53.93844277 53.41197311 -55.57236882 53.40245804 -57.20630264 53.39485168 C-59.48561238 53.3811423 -61.76433435 53.35388982 -64.04345703 53.32226562 C-65.34155304 53.30860962 -66.63964905 53.29495361 -67.9770813 53.28088379 C-71 53 -71 53 -73 51 C-56.01132457 50.07513647 -39.07347272 49.87564192 -22.0625 49.9375 C-19.61393322 49.94253319 -17.16536543 49.94709283 -14.71679688 49.95117188 C-8.81117504 49.96201462 -2.90559257 49.9786038 3 50 C3.020625 48.72125 3.04125 47.4425 3.0625 46.125 C3.07410156 45.40570313 3.08570312 44.68640625 3.09765625 43.9453125 C3.12649242 41.91814596 3.12649242 41.91814596 2 40 C2.66 40 3.32 40 4 40 C3.96970703 39.4423999 3.93941406 38.8847998 3.90820312 38.31030273 C3.29666578 26.86161798 2.84148067 15.46623164 3 4 C1.35 3.34 -0.3 2.68 -2 2 C-1.34 1.34 -0.68 0.68 0 0 Z " fill="#151514" transform="translate(79,23)"/>
<path d="M0 0 C1.54010742 0.02030273 1.54010742 0.02030273 3.11132812 0.04101562 C5.63725909 0.07626117 8.1621066 0.125533 10.6875 0.1875 C11.05228137 6.63197085 11.05228137 6.63197085 9.56323242 8.8996582 C6.84402096 10.76661648 4.76200976 10.5265776 1.48828125 10.48046875 C0.27978516 10.47080078 -0.92871094 10.46113281 -2.17382812 10.45117188 C-3.43646484 10.42603516 -4.69910156 10.40089844 -6 10.375 C-7.91135742 10.35469727 -7.91135742 10.35469727 -9.86132812 10.33398438 C-13.01214057 10.29858199 -16.16211045 10.2491979 -19.3125 10.1875 C-18.6525 9.1975 -17.9925 8.2075 -17.3125 7.1875 C-17.209375 6.5275 -17.10625 5.8675 -17 5.1875 C-16.3125 3.1875 -16.3125 3.1875 -14.4765625 1.57421875 C-9.70220164 -0.51824805 -5.14791176 -0.12845077 0 0 Z " fill="#D6E0E6" transform="translate(72.3125,63.8125)"/>
<path d="M0 0 C2.9375 2.0625 2.9375 2.0625 5 5 C5 8.51955419 4.63108355 10.84920059 2.9375 13.9375 C-0.26063137 15.69131398 -3.45325707 15.6502362 -7 15 C-9.91781637 12.72045596 -9.97820387 11.17436907 -10.4375 7.5 C-10 4 -10 4 -8.375 1.5625 C-5.24316508 -0.49791771 -3.68455227 -0.6767545 0 0 Z " fill="#64B6DE" transform="translate(50,40)"/>
<path d="M0 0 C1.98 0 3.96 0 6 0 C6 1.32 6 2.64 6 4 C5.05125 4.28875 4.1025 4.5775 3.125 4.875 C-0.05211578 5.76825109 -0.05211578 5.76825109 -2 8 C-2.19965373 10.62940196 -2.2798411 13.15120163 -2.265625 15.78125 C-2.26753845 16.55053833 -2.2694519 17.31982666 -2.27142334 18.11242676 C-2.27278508 19.7398308 -2.26908939 21.3672457 -2.26074219 22.99462891 C-2.25004221 25.49015631 -2.26063751 27.98496382 -2.2734375 30.48046875 C-2.2721159 32.05989743 -2.2695535 33.63932566 -2.265625 35.21875 C-2.27169769 36.34222839 -2.27169769 36.34222839 -2.27789307 37.48840332 C-2.38187202 41.70311148 -2.38187202 41.70311148 0 45 C-0.99 45 -1.98 45 -3 45 C-3 45.66 -3 46.32 -3 47 C-2.34 47.33 -1.68 47.66 -1 48 C-1.66 48 -2.32 48 -3 48 C-2.67 48.763125 -2.34 49.52625 -2 50.3125 C-1 53 -1 53 -1 56 C-2.32 55.67 -3.64 55.34 -5 55 C-5.81981115 51.41302092 -6.12846964 48.09841238 -6.1328125 44.421875 C-6.13506836 43.3508252 -6.13732422 42.27977539 -6.13964844 41.17626953 C-6.13481445 40.04560059 -6.12998047 38.91493164 -6.125 37.75 C-6.12016602 36.59226074 -6.11533203 35.43452148 -6.11035156 34.24169922 C-6.08663854 30.82749793 -6.04808366 27.41393952 -6 24 C-5.98743164 23.07155273 -5.97486328 22.14310547 -5.96191406 21.18652344 C-5.91750186 18.83086411 -5.84258078 16.47919709 -5.75 14.125 C-5.68039063 12.17980469 -5.68039063 12.17980469 -5.609375 10.1953125 C-4.8994082 6.47253787 -3.80805472 5.42711707 -1 3 C-0.67 2.01 -0.34 1.02 0 0 Z " fill="#1F1F1F" transform="translate(6,19)"/>
<path d="M0 0 C2.72286806 4.08430208 2.38524534 6.14590877 2 11 C-1 13 -1 13 -5 13 C-5 12.01 -5 11.02 -5 10 C-7.31 10.33 -9.62 10.66 -12 11 C-12.103125 9.9275 -12.20625 8.855 -12.3125 7.75 C-12.97400493 4.14179128 -13.57483421 2.63604977 -16 0 C-10.34264292 -0.9092181 -5.63736762 -1.16635192 0 0 Z " fill="#4F666F" transform="translate(81,34)"/>
<path d="M0 0 C0.66 0.33 1.32 0.66 2 1 C1.505 1.350625 1.01 1.70125 0.5 2.0625 C-1.77541639 5.0015795 -1.32194022 7.39426955 -1 11 C-0.01 12.485 -0.01 12.485 1 14 C3.43693311 14.36416047 3.43693311 14.36416047 6.125 14.1875 C7.49011719 14.14689453 7.49011719 14.14689453 8.8828125 14.10546875 C9.58148438 14.07066406 10.28015625 14.03585938 11 14 C8.44722581 16.79233071 6.77639718 17.48967606 3 18 C3.99 18.66 4.98 19.32 6 20 C3 22 3 22 0.625 21.875 C-3.32727594 20.55757469 -6.01088869 18.85268157 -8.015625 15.09765625 C-9.57641386 11.28791254 -10.30812063 9.0139592 -9 5 C-8.34 5.66 -7.68 6.32 -7 7 C-6.21625 6.21625 -5.4325 5.4325 -4.625 4.625 C-3.08333333 3.08333333 -1.54166667 1.54166667 0 0 Z " fill="#408FBF" transform="translate(42,40)"/>
<path d="M0 0 C2.0625 0.1875 2.0625 0.1875 4 1 C4.33 1.99 4.66 2.98 5 4 C5.66 4.33 6.32 4.66 7 5 C7.07409532 10.92648574 7.12857616 16.85270253 7.16479492 22.77954102 C7.17989179 24.79619034 7.20037115 26.81280679 7.22631836 28.8293457 C7.26266211 31.72615671 7.2797172 34.62253406 7.29296875 37.51953125 C7.30845261 38.42274612 7.32393646 39.325961 7.33988953 40.25654602 C7.34022942 41.5175135 7.34022942 41.5175135 7.34057617 42.80395508 C7.34723801 43.54341873 7.35389984 44.28288239 7.36076355 45.04475403 C6.90396853 47.52046594 5.89765205 48.41158363 4 50 C2.64944799 47.29889598 3 44.99210994 3 42 C2.67 41.34 2.34 40.68 2 40 C2.66 40 3.32 40 4 40 C3.96970703 39.4423999 3.93941406 38.8847998 3.90820312 38.31030273 C3.29666578 26.86161798 2.84148067 15.46623164 3 4 C0.525 3.01 0.525 3.01 -2 2 C-1.34 1.34 -0.68 0.68 0 0 Z " fill="#222222" transform="translate(79,23)"/>
<path d="M0 0 C2.6875 0.3125 2.6875 0.3125 5 1 C5.33 2.98 5.66 4.96 6 7 C3.00873681 8.72206188 0.89314287 9.24179923 -2.546875 9.1953125 C-3.81337891 9.18564453 -3.81337891 9.18564453 -5.10546875 9.17578125 C-5.97816406 9.15902344 -6.85085937 9.14226562 -7.75 9.125 C-8.63816406 9.11597656 -9.52632812 9.10695313 -10.44140625 9.09765625 C-12.62788058 9.07414577 -14.81380094 9.04128499 -17 9 C-17.33 7.68 -17.66 6.36 -18 5 C-13.85781511 2.23854341 -10.66401231 2.97889154 -5.8125 3.22265625 C-2.56656009 2.96568601 -2.06180636 2.35457041 0 0 Z " fill="#C1CDD3" transform="translate(50,65)"/>
<path d="M0 0 C3.63 0 7.26 0 11 0 C13.35333796 4.70667591 13.17102038 6.8693886 13 12 C12.34 11.67 11.68 11.34 11 11 C11 10.67 11 10.34 11 10 C5.27959989 9.1679418 -0.22240116 8.87963336 -6 9 C-6 8.34 -6 7.68 -6 7 C-2.73454239 5.11608215 0.28111761 4.50712033 4 4 C-0.455 4.495 -0.455 4.495 -5 5 C-4.01 4.01 -3.02 3.02 -2 2 C-1.34 2 -0.68 2 0 2 C0 1.34 0 0.68 0 0 Z " fill="#CED6D9" transform="translate(70,25)"/>
<path d="M0 0 C1.26070312 0.08765625 2.52140625 0.1753125 3.8203125 0.265625 C4.82835938 0.42546875 5.83640625 0.5853125 6.875 0.75 C7.875 2.75 7.875 2.75 7.125 5.3125 C5.875 7.75 5.875 7.75 2.875 8.75 C1.23220783 8.86792999 -0.41552694 8.92511674 -2.0625 8.9375 C-2.91714844 8.95167969 -3.77179688 8.96585938 -4.65234375 8.98046875 C-7.26409303 8.73703556 -8.88000652 8.0678268 -11.125 6.75 C-10.8125 4.375 -10.8125 4.375 -10.125 1.75 C-6.32249703 -0.78500198 -4.49879385 -0.35103525 0 0 Z " fill="#141413" transform="translate(73.125,16.25)"/>
<path d="M0 0 C3 1 3 1 4.1875 3.125 C5.5197552 7.83913377 5.56059182 11.52475837 3.8125 16.125 C1.15609459 20.33860859 -1.8689342 23.24595614 -6 26 C-12.75345185 27.03161076 -18.40809266 25.9250888 -24 22 C-27.57722196 18.30738378 -28.04381813 14.84998459 -28.1875 9.875 C-28 6 -28 6 -26 4 C-26.061875 4.99 -26.12375 5.98 -26.1875 7 C-26.16981654 11.34128915 -25.24665074 15.25558209 -23 19 C-20.49004504 20.43923199 -20.49004504 20.43923199 -18 21 C-17.67 21.66 -17.34 22.32 -17 23 C-9.26854771 23.81464173 -9.26854771 23.81464173 -2.4375 20.8125 C0.61753557 17.28745896 2.0742476 15.31281277 1.921875 10.56640625 C1.5989374 6.85800611 1.1801735 3.54052049 0 0 Z " fill="#262727" transform="translate(59,38)"/>
<path d="M0 0 C0.08636719 0.80824219 0.17273438 1.61648437 0.26171875 2.44921875 C1.10173511 9.22894346 1.10173511 9.22894346 4.3125 15.125 C8.75365492 18.22348017 12.6623923 19.25521753 18 20 C16.68 21.32 15.36 22.64 14 24 C13.34 23.67 12.68 23.34 12 23 C11.01 23 10.02 23 9 23 C3.52520178 20.45933389 -0.08730365 17.35936128 -3 12 C-4.28317892 8.15046324 -4.06643637 5.05261865 -4 1 C-2 0 -2 0 0 0 Z " fill="#3C5760" transform="translate(31,44)"/>
<path d="M0 0 C1.32 0.33 2.64 0.66 4 1 C5.0443145 4.22788118 5.08529053 5.75917968 3.9375 9 C1.61862589 12.59051475 -0.39208622 14.68548927 -4 17 C-6.81083181 17.40010038 -9.14076228 17.24648601 -12 17 C-11.34 16.34 -10.68 15.68 -10 15 C-10.99 14.01 -11.98 13.02 -13 12 C-11.783125 11.79375 -10.56625 11.5875 -9.3125 11.375 C-4.45185019 10.16631266 -2.67605897 8.18134214 0 4 C0 2.68 0 1.36 0 0 Z " fill="#4094C8" transform="translate(57,45)"/>
<path d="M0 0 C2.91691525 -0.05401695 5.83282724 -0.09368066 8.75 -0.125 C9.575 -0.14175781 10.4 -0.15851562 11.25 -0.17578125 C12.04921875 -0.18222656 12.8484375 -0.18867187 13.671875 -0.1953125 C14.4050293 -0.20578613 15.13818359 -0.21625977 15.89355469 -0.22705078 C18.29896076 0.03222456 19.91251494 0.80774075 22 2 C19.64722731 4.72426311 17.37503669 5.8141763 14 7 C14.33 5.35 14.66 3.7 15 2 C13.02463255 2.34786708 13.02463255 2.34786708 11 3 C10.67 3.66 10.34 4.32 10 5 C8.66666667 5.33333333 7.33333333 5.66666667 6 6 C5.67 6.66 5.34 7.32 5 8 C4.01 8.495 4.01 8.495 3 9 C1.5 7.875 1.5 7.875 0 6 C-0.06012319 4.0009039 -0.06500629 1.99894327 0 0 Z " fill="#CED6DA" transform="translate(3,64)"/>
<path d="M0 0 C0.66 0.33 1.32 0.66 2 1 C1.67 1.66 1.34 2.32 1 3 C1.763125 2.95875 2.52625 2.9175 3.3125 2.875 C6 3 6 3 9 5 C8.67 5.66 8.34 6.32 8 7 C8.66 7.33 9.32 7.66 10 8 C8.35 8.66 6.7 9.32 5 10 C4.67 9.34 4.34 8.68 4 8 C3.01 8.66 2.02 9.32 1 10 C-1.33199388 10.07905064 -3.66832622 10.08798769 -6 10 C-6.33 10.66 -6.66 11.32 -7 12 C-7 11.34 -7 10.68 -7 10 C-7.99 9.67 -8.98 9.34 -10 9 C-8.35 8.01 -6.7 7.02 -5 6 C-5.99 6 -6.98 6 -8 6 C-5.63404067 3.38499232 -3.13950774 1.61000397 0 0 Z " fill="#748B94" transform="translate(18,53)"/>
<path d="M0 0 C1.93798521 0.30947671 3.87537426 0.62268834 5.8125 0.9375 C6.89144531 1.11152344 7.97039063 1.28554688 9.08203125 1.46484375 C12 2 12 2 15 3 C15 3.66 15 4.32 15 5 C15.804375 5.2475 16.60875 5.495 17.4375 5.75 C20 7 20 7 20.8125 9.125 C20.874375 9.74375 20.93625 10.3625 21 11 C19.3125 11.8125 19.3125 11.8125 17 12 C15.9790625 10.824375 15.9790625 10.824375 14.9375 9.625 C11.16691358 6.25553979 8.63039581 6.33377961 3.71875 6.140625 C1.05333913 6.00275892 -1.39971766 5.58412139 -4 5 C-3.34 4.01 -2.68 3.02 -2 2 C-1.34 2 -0.68 2 0 2 C0 1.34 0 0.68 0 0 Z " fill="#415961" transform="translate(42,26)"/>
<path d="M0 0 C1.04542969 0.36867188 2.09085938 0.73734375 3.16796875 1.1171875 C5.8125 2.125 5.8125 2.125 7.8125 3.125 C7.8125 3.785 7.8125 4.445 7.8125 5.125 C8.4725 5.125 9.1325 5.125 9.8125 5.125 C10.1425 5.785 10.4725 6.445 10.8125 7.125 C11.8025 7.785 12.7925 8.445 13.8125 9.125 C16.09772208 14.93828423 16.01342328 23.80541731 13.91796875 29.59765625 C12.8125 31.5 12.8125 31.5 10.8125 34.125 C10.4825 33.465 10.1525 32.805 9.8125 32.125 C10.11414063 31.56425781 10.41578125 31.00351562 10.7265625 30.42578125 C13.24321008 25.09374736 12.78886413 17.32325222 11.08984375 11.7578125 C9.07611494 7.95863183 6.53820049 6.09134193 2.8125 4.125 C2.8125 3.465 2.8125 2.805 2.8125 2.125 C1.94625 2.434375 1.94625 2.434375 1.0625 2.75 C-1.78233096 3.22413849 -2.67369786 2.45583642 -5.1875 1.125 C-7.17860401 0.74209538 -9.17850513 0.39895385 -11.1875 0.125 C-11.1875 -0.205 -11.1875 -0.535 -11.1875 -0.875 C-6.84484165 -2.143281 -4.21403852 -1.51810083 0 0 Z " fill="#232526" transform="translate(54.1875,26.875)"/>
<path d="M0 0 C0.33 0.66 0.66 1.32 1 2 C-0.34753236 6.04259708 -2.47417129 6.69465046 -6 9 C-7.70328319 10.6292274 -9.38161281 12.28641357 -11 14 C-11.66 13.67 -12.32 13.34 -13 13 C-12.93117244 9.558622 -12.76026228 6.94469249 -10.55078125 4.19921875 C-7.18559777 1.14062466 -4.75975037 -0.86540916 0 0 Z " fill="#4093C6" transform="translate(46,34)"/>
<path d="M0 0 C2.83563539 2.71234689 3.93677913 4.04074487 4.203125 8.08203125 C4.21859375 9.31308594 4.2340625 10.54414062 4.25 11.8125 C4.27578125 13.03582031 4.3015625 14.25914063 4.328125 15.51953125 C3.98177129 19.19335454 3.13940118 21.04424837 1 24 C-1 23 -1 23 -2 22 C-1.67 20.989375 -1.34 19.97875 -1 18.9375 C0.80511538 12.5293404 0.02409389 7.19878752 -2 1 C-1.34 0.67 -0.68 0.34 0 0 Z " fill="#3C5861" transform="translate(63,36)"/>
<path d="M0 0 C0.75732422 0.00966797 1.51464844 0.01933594 2.29492188 0.02929688 C3.08060547 0.05443359 3.86628906 0.07957031 4.67578125 0.10546875 C5.87170898 0.12577148 5.87170898 0.12577148 7.09179688 0.14648438 C9.05758092 0.18179786 11.02301707 0.23560428 12.98828125 0.29296875 C12.98828125 0.95296875 12.98828125 1.61296875 12.98828125 2.29296875 C9.02828125 2.29296875 5.06828125 2.29296875 0.98828125 2.29296875 C0.65828125 2.95296875 0.32828125 3.61296875 -0.01171875 4.29296875 C0.97828125 4.29296875 1.96828125 4.29296875 2.98828125 4.29296875 C2.98828125 5.28296875 2.98828125 6.27296875 2.98828125 7.29296875 C-0.32286709 8.42176932 -3.60150132 9.5059955 -7.01171875 10.29296875 C-7.37966613 3.79256506 -7.37966613 3.79256506 -5.75073242 1.58081055 C-3.63961582 0.01740467 -2.60115834 -0.05867274 0 0 Z " fill="#C2CDD2" transform="translate(10.01171875,23.70703125)"/>
<path d="M0 0 C0.66 0.33 1.32 0.66 2 1 C1.34 2.65 0.68 4.3 0 6 C4.12973628 5.43260132 4.12973628 5.43260132 8 4 C8.33 4.99 8.66 5.98 9 7 C8 8 8 8 6.14233398 8.11352539 C5.35157471 8.10828857 4.56081543 8.10305176 3.74609375 8.09765625 C2.89208984 8.09443359 2.03808594 8.09121094 1.15820312 8.08789062 C0.26037109 8.07951172 -0.63746094 8.07113281 -1.5625 8.0625 C-2.46419922 8.05798828 -3.36589844 8.05347656 -4.29492188 8.04882812 C-6.53001314 8.03700225 -8.76497437 8.0205222 -11 8 C-7.55609445 4.39679485 -4.44204525 2.22102263 0 0 Z " fill="#D2DADE" transform="translate(17,66)"/>
<path d="M0 0 C0.66 0 1.32 0 2 0 C2.1953125 2.01822917 2.390625 4.03645833 2.5859375 6.0546875 C2.86374749 8.22668245 2.86374749 8.22668245 5 10 C4.01 10 3.02 10 2 10 C2 10.66 2 11.32 2 12 C2.66 12.33 3.32 12.66 4 13 C3.34 13 2.68 13 2 13 C2.33 13.763125 2.66 14.52625 3 15.3125 C4 18 4 18 4 21 C2.68 20.67 1.36 20.34 0 20 C-0.99258638 15.8721011 -1.13386843 11.9891109 -1.125 7.75 C-1.12757812 6.50734375 -1.13015625 5.2646875 -1.1328125 3.984375 C-1 1 -1 1 0 0 Z " fill="#292A2B" transform="translate(1,54)"/>
<path d="M0 0 C2.22855574 -0.0814222 4.45797655 -0.13938079 6.6875 -0.1875 C8.54955078 -0.23970703 8.54955078 -0.23970703 10.44921875 -0.29296875 C14.2457708 0.02027812 16.01467371 0.69242347 19 3 C19.99 4.485 19.99 4.485 21 6 C20.01 7.32 19.02 8.64 18 10 C17.79375 9.21625 17.5875 8.4325 17.375 7.625 C16.22339914 4.79559552 16.22339914 4.79559552 13.4375 3.75 C9.89677667 2.97747855 6.46659348 2.58570141 2.85546875 2.34375 C1.93701172 2.17359375 1.93701172 2.17359375 1 2 C0.67 1.34 0.34 0.68 0 0 Z " fill="#252626" transform="translate(43,11)"/>
<path d="M0 0 C2.97 0.33 5.94 0.66 9 1 C8.67 2.98 8.34 4.96 8 7 C5.03 7 2.06 7 -1 7 C-0.67 4.69 -0.34 2.38 0 0 Z " fill="#2B2B2C" transform="translate(19,16)"/>
<path d="M0 0 C1.8125 1.375 1.8125 1.375 3 3 C3 3.66 3 4.32 3 5 C4.32 5.33 5.64 5.66 7 6 C2.38 6 -2.24 6 -7 6 C-7.33 4.68 -7.66 3.36 -8 2 C-4.76746204 -0.15502531 -3.74849077 -0.46856135 0 0 Z " fill="#D6E1E7" transform="translate(40,68)"/>
<path d="M0 0 C0 0.66 0 1.32 0 2 C-2.97 1.505 -2.97 1.505 -6 1 C-6.33 1.66 -6.66 2.32 -7 3 C-7.66 3.66 -8.32 4.32 -9 5 C-7.88625 4.79375 -6.7725 4.5875 -5.625 4.375 C-3.830625 4.189375 -3.830625 4.189375 -2 4 C-1.34 4.66 -0.68 5.32 0 6 C-1.5823006 6.33820166 -3.16589375 6.67035939 -4.75 7 C-6.07257813 7.2784375 -6.07257813 7.2784375 -7.421875 7.5625 C-10 8 -10 8 -14 8 C-14 7.34 -14 6.68 -14 6 C-14.66 5.67 -15.32 5.34 -16 5 C-10.54259658 0.35540135 -7.11807295 -0.72633397 0 0 Z " fill="#9FA5A8" transform="translate(76,24)"/>
<path d="M0 0 C3.1875 2.0625 3.1875 2.0625 5 4 C4.67 4.66 4.34 5.32 4 6 C3.21625 5.525625 2.4325 5.05125 1.625 4.5625 C-3.49596516 1.51430645 -7.18920075 1.69235367 -13 3 C-15.6838207 4.43421106 -17.65955134 6.01570657 -20 8 C-16.33279119 -1.33471335 -8.60159948 -1.66082756 0 0 Z " fill="#252322" transform="translate(54,32)"/>
<path d="M0 0 C0.66 0.33 1.32 0.66 2 1 C1.505 1.350625 1.01 1.70125 0.5 2.0625 C-1.77541639 5.0015795 -1.32194022 7.39426955 -1 11 C-0.01 12.485 -0.01 12.485 1 14 C3.43693311 14.36416047 3.43693311 14.36416047 6.125 14.1875 C7.49011719 14.14689453 7.49011719 14.14689453 8.8828125 14.10546875 C9.58148438 14.07066406 10.28015625 14.03585938 11 14 C8.95094193 16.27270157 8.31239106 16.94446381 5.1875 17.5 C0.79254119 16.8105947 -1.05406234 15.29664452 -4 12 C-4.7878128 7.5882483 -4.52975133 5.77807226 -2 2.0625 C-1.34 1.381875 -0.68 0.70125 0 0 Z " fill="#272D31" transform="translate(42,40)"/>
<path d="M0 0 C0.68707555 2.49064888 1 4.37886292 1 7 C-2 9 -2 9 -6 9 C-6 8.01 -6 7.02 -6 6 C-7.65 5.67 -9.3 5.34 -11 5 C-10.67 4.34 -10.34 3.68 -10 3 C-7.66842508 2.65458149 -5.33491639 2.32205743 -3 2 C-2.01 1.34 -1.02 0.68 0 0 Z " fill="#859AA3" transform="translate(82,38)"/>
<path d="M0 0 C0 1.32 0 2.64 0 4 C-1.65 3.67 -3.3 3.34 -5 3 C-5 4.32 -5 5.64 -5 7 C-8.35237404 6.44127099 -11.02471107 5.64153872 -14 4 C-14.66 3.67 -15.32 3.34 -16 3 C-15.29875 2.896875 -14.5975 2.79375 -13.875 2.6875 C-10.88015979 2.10240319 -10.88015979 2.10240319 -8 0.375 C-4.68513317 -1.14431397 -3.39991451 -1.09997234 0 0 Z " fill="#B0B9BD" transform="translate(56,18)"/>
<path d="M0 0 C3.96 0 7.92 0 12 0 C10.68 2.64 9.36 5.28 8 8 C4 8 4 8 2 7 C4.31 5.35 6.62 3.7 9 2 C7.02 2.66 5.04 3.32 3 4 C3 3.34 3 2.68 3 2 C2.01 2 1.02 2 0 2 C0 1.34 0 0.68 0 0 Z " fill="#828F95" transform="translate(18,34)"/>
<path d="M0 0 C0 0.99 0 1.98 0 3 C-3.45826342 3.05789006 -6.91640293 3.09355821 -10.375 3.125 C-11.35984375 3.14175781 -12.3446875 3.15851563 -13.359375 3.17578125 C-14.30039063 3.18222656 -15.24140625 3.18867187 -16.2109375 3.1953125 C-17.51490479 3.21102295 -17.51490479 3.21102295 -18.84521484 3.22705078 C-21 3 -21 3 -23 1 C-19.54170353 0.83256252 -16.08335707 0.66618079 -12.625 0.5 C-11.64015625 0.45230469 -10.6553125 0.40460938 -9.640625 0.35546875 C-8.69960938 0.31035156 -7.75859375 0.26523438 -6.7890625 0.21875 C-5.91975098 0.17685547 -5.05043945 0.13496094 -4.15478516 0.09179688 C-2.77077412 0.03283606 -1.38526637 0 0 0 Z " fill="#1C1C1C" transform="translate(29,73)"/>
<path d="M0 0 C1.8125 0.9375 1.8125 0.9375 2.8125 3.9375 C1.6678125 4.5871875 1.6678125 4.5871875 0.5 5.25 C-1.7754919 6.67879724 -3.35771704 8.01622789 -5.1875 9.9375 C-5.5175 9.9375 -5.8475 9.9375 -6.1875 9.9375 C-6.51852914 6.2961795 -6.60769439 4.52277075 -4.4375 1.5 C-2.1875 -0.0625 -2.1875 -0.0625 0 0 Z " fill="#69BFE8" transform="translate(46.1875,40.0625)"/>
<path d="M0 0 C2.3431213 0.25561323 4.67843403 0.59270772 7 1 C7.33 1.66 7.66 2.32 8 3 C6.68 4.32 5.36 5.64 4 7 C3.01 6.67 2.02 6.34 1 6 C0.01 6 -0.98 6 -2 6 C-2 5.01 -2 4.02 -2 3 C-1.34 3 -0.68 3 0 3 C0 2.01 0 1.02 0 0 Z " fill="#8498A0" transform="translate(74,33)"/>
<path d="M0 0 C2 2 2 2 2 5 C-1.3 5 -4.6 5 -8 5 C-7.67 3.68 -7.34 2.36 -7 1 C-4.48718205 -0.25640898 -2.78302919 -0.20872719 0 0 Z " fill="#99A8B0" transform="translate(76,18)"/>
<path d="M0 0 C0.99 0.33 1.98 0.66 3 1 C3.6875 3.0625 3.6875 3.0625 4 5 C0.81175432 6.59412284 -2.62896662 6.10174735 -6.125 6.0625 C-6.87910156 6.05798828 -7.63320313 6.05347656 -8.41015625 6.04882812 C-10.27347127 6.03703499 -12.13674555 6.01909942 -14 6 C-14 5.67 -14 5.34 -14 5 C-13.37351562 4.86722656 -12.74703125 4.73445313 -12.1015625 4.59765625 C-11.28429687 4.42105469 -10.46703125 4.24445312 -9.625 4.0625 C-8.81289063 3.88847656 -8.00078125 3.71445312 -7.1640625 3.53515625 C-4.970537 3.07669307 -4.970537 3.07669307 -3 2 C-3 2.99 -3 3.98 -3 5 C-2.01 4.34 -1.02 3.68 0 3 C-0.66 2.34 -1.32 1.68 -2 1 C-1.34 0.67 -0.68 0.34 0 0 Z " fill="#3A4347" transform="translate(26,58)"/>
<path d="M0 0 C6.625 -0.125 6.625 -0.125 10 1 C12.46552067 4.37867647 13 5.70558202 13 10 C13.66 10.33 14.32 10.66 15 11 C13.02 12.32 11.04 13.64 9 15 C9.11859375 14.39671875 9.2371875 13.7934375 9.359375 13.171875 C10.28437605 8.10597976 10.28437605 8.10597976 8.4375 3.5 C5.59438344 1.75038981 3.30444034 1.30040367 0 1 C0 0.67 0 0.34 0 0 Z " fill="#252628" transform="translate(44,39)"/>
<path d="M0 0 C0.89203125 0.01804687 1.7840625 0.03609375 2.703125 0.0546875 C3.71632813 0.08949219 3.71632813 0.08949219 4.75 0.125 C2.46568262 2.48300504 0.7418976 4.01220897 -2.5859375 4.390625 C-4.81920205 4.376535 -7.02382441 4.29960201 -9.25 4.125 C-9.25 3.465 -9.25 2.805 -9.25 2.125 C-6.03817851 0.21891902 -3.71117397 -0.09766247 0 0 Z " fill="#DAE3E7" transform="translate(73.25,29.875)"/>
<path d="M0 0 C2.0625 0.4375 2.0625 0.4375 4 1 C4.625 2.875 4.625 2.875 5 5 C4.34 5.66 3.68 6.32 3 7 C0.375 6.625 0.375 6.625 -2 6 C-1.125 1.125 -1.125 1.125 0 0 Z " fill="#415358" transform="translate(46,44)"/>
<path d="M0 0 C-0.33 1.32 -0.66 2.64 -1 4 C-0.34 4.33 0.32 4.66 1 5 C-2.625 8 -2.625 8 -6 8 C-6 5.69 -6 3.38 -6 1 C-3 0 -3 0 0 0 Z " fill="#5E7781" transform="translate(75,44)"/>
<path d="M0 0 C2.00720923 0.28674418 4.0085944 0.61866701 6 1 C5.39816251 3.02045442 4.72693904 5.02111039 4 7 C3.01 7.495 3.01 7.495 2 8 C-0.125 7.0625 -0.125 7.0625 -2 6 C-1.125 1.125 -1.125 1.125 0 0 Z " fill="#1D1E1E" transform="translate(64,17)"/>
<path d="M0 0 C1.32 0 2.64 0 4 0 C4.268125 0.61875 4.53625 1.2375 4.8125 1.875 C5.95556848 4.2995233 5.95556848 4.2995233 9 6 C7.68 7.32 6.36 8.64 5 10 C3 9 3 9 2 7 C2 6.01 2 5.02 2 4 C1.34 3.67 0.68 3.34 0 3 C0 2.01 0 1.02 0 0 Z " fill="#BDC3C7" transform="translate(57,19)"/>
<path d="M0 0 C1.50433594 0.29197266 1.50433594 0.29197266 3.0390625 0.58984375 C4.19535156 0.82380859 4.19535156 0.82380859 5.375 1.0625 C4.055 2.3825 2.735 3.7025 1.375 5.0625 C0.715 4.7325 0.055 4.4025 -0.625 4.0625 C-1.615 4.0625 -2.605 4.0625 -3.625 4.0625 C-5.8125 3.0625 -5.8125 3.0625 -7.625 2.0625 C-7.625 1.4025 -7.625 0.7425 -7.625 0.0625 C-4.81015955 -1.34492022 -3.05563887 -0.60402164 0 0 Z " fill="#667D84" transform="translate(43.625,62.9375)"/>
<path d="M0 0 C0.66 0.99 1.32 1.98 2 3 C2.99 3.33 3.98 3.66 5 4 C5.33 4.99 5.66 5.98 6 7 C4.02 7.33 2.04 7.66 0 8 C-0.99 6.35 -1.98 4.7 -3 3 C-2.01 2.67 -1.02 2.34 0 2 C0 1.34 0 0.68 0 0 Z " fill="#5BABD4" transform="translate(43,47)"/>
<path d="M0 0 C1 3 1 3 1.3125 6.8125 C1.78564902 11.02430191 3.42321456 13.61796911 6 17 C6.33 17.66 6.66 18.32 7 19 C4.6875 18.4375 4.6875 18.4375 2 17 C-0.99326116 11.8392049 -1.40049786 7.90734342 -1 2 C-0.67 1.34 -0.34 0.68 0 0 Z " fill="#231F1D" transform="translate(32,42)"/>
<path d="M0 0 C3.125 -0.1875 3.125 -0.1875 6 0 C6 1.32 6 2.64 6 4 C5.071875 4.28875 4.14375 4.5775 3.1875 4.875 C-0.09791667 5.8875 -0.09791667 5.8875 -3 8 C-2.45276317 4.62537285 -1.9451 2.91765 0 0 Z " fill="#61686C" transform="translate(6,19)"/>
<path d="M0 0 C3.3 0 6.6 0 10 0 C8.515 1.485 8.515 1.485 7 3 C6.34 3 5.68 3 5 3 C5 3.66 5 4.32 5 5 C4.01 5 3.02 5 2 5 C2 4.34 2 3.68 2 3 C1.01 3 0.02 3 -1 3 C-0.67 2.01 -0.34 1.02 0 0 Z " fill="#D9E5EB" transform="translate(11,25)"/>
<path d="M0 0 C4.455 0.99 4.455 0.99 9 2 C8.67 2.66 8.34 3.32 8 4 C6.02 4 4.04 4 2 4 C1.67 4.66 1.34 5.32 1 6 C-0.65 5.67 -2.3 5.34 -4 5 C-3.34 4.01 -2.68 3.02 -2 2 C-1.34 2 -0.68 2 0 2 C0 1.34 0 0.68 0 0 Z " fill="#71848A" transform="translate(42,26)"/>
<path d="M0 0 C0.50015625 0.31710938 1.0003125 0.63421875 1.515625 0.9609375 C4.87241148 2.3648765 8.16286294 2.46225654 11.75 2.625 C12.44738281 2.66367187 13.14476563 2.70234375 13.86328125 2.7421875 C15.57510818 2.83598624 17.28751682 2.91906174 19 3 C19 3.33 19 3.66 19 4 C12.4 4 5.8 4 -1 4 C-0.67 2.68 -0.34 1.36 0 0 Z " fill="#363C3E" transform="translate(62,60)"/>
<path d="M0 0 C2.0625 0.1875 2.0625 0.1875 4 1 C4.33 1.99 4.66 2.98 5 4 C5.66 4.33 6.32 4.66 7 5 C6.67 6.98 6.34 8.96 6 11 C5.34 11 4.68 11 4 11 C3.67 8.69 3.34 6.38 3 4 C0.525 3.01 0.525 3.01 -2 2 C-1.34 1.34 -0.68 0.68 0 0 Z " fill="#2E2F30" transform="translate(79,23)"/>
<path d="M0 0 C2.9375 0.8125 2.9375 0.8125 6 2 C6.33 2.99 6.66 3.98 7 5 C5.5625 7.1875 5.5625 7.1875 4 9 C3.731875 8.195625 3.46375 7.39125 3.1875 6.5625 C2.795625 5.716875 2.40375 4.87125 2 4 C1.01 3.67 0.02 3.34 -1 3 C-0.67 2.01 -0.34 1.02 0 0 Z " fill="#303132" transform="translate(57,12)"/>
<path d="M0 0 C1.65 1.65 3.3 3.3 5 5 C3.68 6.32 2.36 7.64 1 9 C0.34 8.67 -0.32 8.34 -1 8 C-1.125 2.25 -1.125 2.25 0 0 Z " fill="#58727C" transform="translate(4,45)"/>
<path d="M0 0 C1.485 0.99 1.485 0.99 3 2 C3.99 1.67 4.98 1.34 6 1 C6 2.32 6 3.64 6 5 C3.5 6.75 3.5 6.75 1 8 C0.67 5.36 0.34 2.72 0 0 Z " fill="#3B7290" transform="translate(32,45)"/>
<path d="M0 0 C0 1.32 0 2.64 0 4 C-1.98 4 -3.96 4 -6 4 C-6 2.68 -6 1.36 -6 0 C-3 -1 -3 -1 0 0 Z " fill="#B0C2CB" transform="translate(26,19)"/>
<path d="M0 0 C2.31 0 4.62 0 7 0 C8.33332095 2.6666419 7.67102033 4.16680303 7 7 C6.34 7 5.68 7 5 7 C5 5.68 5 4.36 5 3 C3.35 3 1.7 3 0 3 C0 2.01 0 1.02 0 0 Z " fill="#232424" transform="translate(7,16)"/>
<path d="M0 0 C1.98 0 3.96 0 6 0 C5.67 0.66 5.34 1.32 5 2 C5.66 2.66 6.32 3.32 7 4 C6.34 4 5.68 4 5 4 C5 4.66 5 5.32 5 6 C3.68 6 2.36 6 1 6 C0.67 4.02 0.34 2.04 0 0 Z " fill="#3B7BA1" transform="translate(45,33)"/>
<path d="M0 0 C0.99 0.33 1.98 0.66 3 1 C3 1.66 3 2.32 3 3 C-0.98196457 4.05404945 -3.98195309 3.84098656 -8 3 C-7.67 2.34 -7.34 1.68 -7 1 C-5.5459375 1.0309375 -5.5459375 1.0309375 -4.0625 1.0625 C-1.12534105 1.35618499 -1.12534105 1.35618499 0 0 Z " fill="#3F5860" transform="translate(51,28)"/>
<path d="M0 0 C0.66 0.99 1.32 1.98 2 3 C1 4 1 4 -1.50390625 4.09765625 C-3.01791016 4.08025391 -3.01791016 4.08025391 -4.5625 4.0625 C-5.57441406 4.05347656 -6.58632813 4.04445313 -7.62890625 4.03515625 C-8.41136719 4.02355469 -9.19382812 4.01195313 -10 4 C-9.67 3.34 -9.34 2.68 -9 2 C-7.6078125 2.061875 -7.6078125 2.061875 -6.1875 2.125 C-2.84190281 2.27136339 -2.84190281 2.27136339 0 0 Z " fill="#CBD4D9" transform="translate(24,70)"/>
<path d="M0 0 C0.66 0.33 1.32 0.66 2 1 C1.67 1.99 1.34 2.98 1 4 C2.32 4.66 3.64 5.32 5 6 C2.69 6 0.38 6 -2 6 C-2.33 4.68 -2.66 3.36 -3 2 C-2.01 1.34 -1.02 0.68 0 0 Z " fill="#B8C1C6" transform="translate(35,68)"/>
<path d="M0 0 C0.66 0.33 1.32 0.66 2 1 C2 2.65 2 4.3 2 6 C1.01 6.33 0.02 6.66 -1 7 C-1.99 6.01 -2.98 5.02 -4 4 C-2.68 2.68 -1.36 1.36 0 0 Z " fill="#B4BCC0" transform="translate(7,66)"/>
<path d="M0 0 C1.98 0.66 3.96 1.32 6 2 C4.8125 3.5625 4.8125 3.5625 3 5 C0.3125 4.6875 0.3125 4.6875 -2 4 C-1.34 2.68 -0.68 1.36 0 0 Z " fill="#3E86B0" transform="translate(42,57)"/>
<path d="M0 0 C1.5625 1.1875 1.5625 1.1875 3 3 C2.6875 5.6875 2.6875 5.6875 2 8 C1.34 8 0.68 8 0 8 C-0.66 5.69 -1.32 3.38 -2 1 C-1.34 0.67 -0.68 0.34 0 0 Z " fill="#456069" transform="translate(63,36)"/>
<path d="M0 0 C2.31 0.33 4.62 0.66 7 1 C7 4 7 4 6 6 C4.68 5.67 3.36 5.34 2 5 C2 4.01 2 3.02 2 2 C1.34 1.34 0.68 0.68 0 0 Z " fill="#4094C8" transform="translate(48,34)"/>
<path d="M0 0 C1.65 0.33 3.3 0.66 5 1 C5 1.66 5 2.32 5 3 C1.78548731 4.60725635 -1.43612536 4.05748185 -5 4 C-5 3.34 -5 2.68 -5 2 C-3.35 2 -1.7 2 0 2 C0 1.34 0 0.68 0 0 Z " fill="#C8D2D7" transform="translate(62,70)"/>
<path d="M0 0 C0.33 0.66 0.66 1.32 1 2 C-1.475 3.485 -1.475 3.485 -4 5 C-3.67 5.66 -3.34 6.32 -3 7 C-4.32 7.33 -5.64 7.66 -7 8 C-7.66 7.01 -8.32 6.02 -9 5 C-6.03 3.35 -3.06 1.7 0 0 Z " fill="#374D55" transform="translate(14,57)"/>
<path d="M0 0 C0.66 0 1.32 0 2 0 C2 2.97 2 5.94 2 9 C0.68 8.34 -0.64 7.68 -2 7 C-1.01 6.67 -0.02 6.34 1 6 C0.16666667 3.83333333 0.16666667 3.83333333 -2 3 C-1.34 2.01 -0.68 1.02 0 0 Z " fill="#5A7782" transform="translate(81,45)"/>
<path d="M0 0 C-2.83430453 3.2542015 -4.68607774 4.5206753 -9 5 C-8.34 4.01 -7.68 3.02 -7 2 C-7 1.34 -7 0.68 -7 0 C-4.3333581 -1.33332095 -2.83319697 -0.67102033 0 0 Z " fill="#E3E9EB" transform="translate(58,21)"/>
<path d="M0 0 C0.33 0 0.66 0 1 0 C1.36923077 5.53846154 1.36923077 5.53846154 -0.5 7.875 C-1.2425 8.431875 -1.2425 8.431875 -2 9 C-3 7 -3 7 -2.125 3.9375 C-1 1 -1 1 0 0 Z " fill="#1F1F1F" transform="translate(85,64)"/>
<path d="M0 0 C0.66 0 1.32 0 2 0 C2.66 1.98 3.32 3.96 4 6 C2.68 6.33 1.36 6.66 0 7 C-0.38133299 5.0085944 -0.71325582 3.00720923 -1 1 C-0.67 0.67 -0.34 0.34 0 0 Z " fill="#44626D" transform="translate(23,51)"/>
<path d="M0 0 C-0.33 1.65 -0.66 3.3 -1 5 C-2.65 4.67 -4.3 4.34 -6 4 C-6.33 3.01 -6.66 2.02 -7 1 C-3.375 -1.125 -3.375 -1.125 0 0 Z " fill="#46616C" transform="translate(10,52)"/>
<path d="M0 0 C1.65 0 3.3 0 5 0 C5 0.66 5 1.32 5 2 C2 4 2 4 -2 4 C-1.34 2.68 -0.68 1.36 0 0 Z " fill="#758C95" transform="translate(78,43)"/>
<path d="M0 0 C0.99 0.33 1.98 0.66 3 1 C3.6875 3.0625 3.6875 3.0625 4 5 C2.68 5.33 1.36 5.66 0 6 C-1 4 -1 4 -1 3 C-1.33 2.34 -1.66 1.68 -2 1 C-1.34 0.67 -0.68 0.34 0 0 Z " fill="#4F676F" transform="translate(26,58)"/>
<path d="M0 0 C4.875 1.75 4.875 1.75 6 4 C4.02 4.99 4.02 4.99 2 6 C1.87625 5.360625 1.7525 4.72125 1.625 4.0625 C1.315625 3.0415625 1.315625 3.0415625 1 2 C0.34 1.67 -0.32 1.34 -1 1 C-0.67 0.67 -0.34 0.34 0 0 Z " fill="#5BABD3" transform="translate(48,40)"/>
<path d="M0 0 C1.98 0 3.96 0 6 0 C6 0.99 6 1.98 6 3 C4.02 3 2.04 3 0 3 C0 2.01 0 1.02 0 0 Z " fill="#4B5A60" transform="translate(75,34)"/>
<path d="M0 0 C1 2 2 4 3 6 C0.36 6.33 -2.28 6.66 -5 7 C-5 6.34 -5 5.68 -5 5 C-3.68 5 -2.36 5 -1 5 C-0.67 3.35 -0.34 1.7 0 0 Z " fill="#161515" transform="translate(28,18)"/>
<path d="M0 0 C2 1 2 1 3 3 C2.360625 3.12375 1.72125 3.2475 1.0625 3.375 C0.381875 3.58125 -0.29875 3.7875 -1 4 C-1.33 4.66 -1.66 5.32 -2 6 C-2 5.34 -2 4.68 -2 4 C-2.99 3.67 -3.98 3.34 -5 3 C-2.625 1.4375 -2.625 1.4375 0 0 Z " fill="#889BA3" transform="translate(13,59)"/>
<path d="M0 0 C-0.99 1.485 -0.99 1.485 -2 3 C-4.625 3.1875 -4.625 3.1875 -7 3 C-7 2.01 -7 1.02 -7 0 C-4.3333581 -1.33332095 -2.83319697 -0.67102033 0 0 Z " fill="#E0EAF0" transform="translate(50,23)"/>
<path d="M0 0 C0.556875 0.33 1.11375 0.66 1.6875 1 C4.30284522 2.1309601 6.1806646 2.15662974 9 2 C9 2.66 9 3.32 9 4 C6.03 4 3.06 4 0 4 C0 2.68 0 1.36 0 0 Z " fill="#B0C1CB" transform="translate(68,19)"/>
<path d="M0 0 C0.66 0.33 1.32 0.66 2 1 C1.34 2.32 0.68 3.64 0 5 C-1.32 4.67 -2.64 4.34 -4 4 C-2.68 2.68 -1.36 1.36 0 0 Z " fill="#DEE6EC" transform="translate(17,66)"/>
<path d="M0 0 C0.66 0.33 1.32 0.66 2 1 C1.67 1.66 1.34 2.32 1 3 C1.66 3.33 2.32 3.66 3 4 C1.35 4.66 -0.3 5.32 -2 6 C-2.33 4.68 -2.66 3.36 -3 2 C-2.01 1.34 -1.02 0.68 0 0 Z " fill="#ABB8BE" transform="translate(25,57)"/>
<path d="M0 0 C1.65 1.65 3.3 3.3 5 5 C3.02 5 1.04 5 -1 5 C-1.33 4.01 -1.66 3.02 -2 2 C-1.34 1.34 -0.68 0.68 0 0 Z " fill="#3D728E" transform="translate(55,35)"/>
<path d="M0 0 C0.33 1.65 0.66 3.3 1 5 C-1.86724686 4.42655063 -2.8614515 4.1385485 -5 2 C-2 0 -2 0 0 0 Z " fill="#697D83" transform="translate(57,29)"/>
<path d="M0 0 C0.99 0.33 1.98 0.66 3 1 C0.1875 3.0625 0.1875 3.0625 -3 5 C-3.99 4.67 -4.98 4.34 -6 4 C-3.1875 1.9375 -3.1875 1.9375 0 0 Z " fill="#232F33" transform="translate(39,27)"/>
<path d="" fill="#000000" transform="translate(0,0)"/>
<path d="" fill="#000000" transform="translate(0,0)"/>
<path d="" fill="#000000" transform="translate(0,0)"/>
<path d="" fill="#000000" transform="translate(0,0)"/>
<path d="" fill="#000000" transform="translate(0,0)"/>
<path d="" fill="#000000" transform="translate(0,0)"/>
<path d="" fill="#000000" transform="translate(0,0)"/>
<path d="" fill="#000000" transform="translate(0,0)"/>
<path d="" fill="#000000" transform="translate(0,0)"/>
<path d="" fill="#000000" transform="translate(0,0)"/>
<path d="" fill="#000000" transform="translate(0,0)"/>
<path d="" fill="#000000" transform="translate(0,0)"/>
<path d="" fill="#000000" transform="translate(0,0)"/>
<path d="" fill="#000000" transform="translate(0,0)"/>
<path d="" fill="#000000" transform="translate(0,0)"/>
<path d="" fill="#000000" transform="translate(0,0)"/>
<path d="" fill="#000000" transform="translate(0,0)"/>
<path d="" fill="#000000" transform="translate(0,0)"/>
</svg>
